<?xml version="1.0" encoding="UTF-8" standalone="no"?>
<!-- Created with Inkscape (http://www.inkscape.org/) -->
<svg
   xmlns:svg="http://www.w3.org/2000/svg"
   xmlns="http://www.w3.org/2000/svg"
   version="1.0"
   width="800"
   height="460"
   id="svg2">
  <defs
     id="defs4" />
  <g
     id="layer1">
    <path
       d="M 6 163 A 104.5 54 0 1 1  -203,163 A 104.5 54 0 1 1  6 163 z"
       transform="matrix(1.2522483,-1.2323774,1.232645,1.2519768,266.71085,-175.60455)"
       style="fill:#ebf5f5;fill-opacity:1;stroke:#000000;stroke-width:5;stroke-miterlimit:4;stroke-dasharray:none;stroke-opacity:1"
       id="path8130" />
    <g
       transform="matrix(1.7571398,0,0,1.7567587,-46.005686,36.957613)"
       id="g2255">
      <path
         d="M 409 167 A 178.5 101 0 1 1  52,167 A 178.5 101 0 1 1  409 167 z"
         transform="matrix(0.8963585,0,0,0.8910891,68.081114,-0.5036732)"
         style="fill:#000000;fill-opacity:1;fill-rule:evenodd;stroke:#000000;stroke-width:5.594594;stroke-linecap:butt;stroke-linejoin:miter;stroke-miterlimit:4;stroke-dasharray:none;stroke-opacity:1"
         id="path2162" />
      <path
         d="M 221.42938,231.8088 C 207.10463,228.81728 184.42938,222.15395 184.42938,220.93603 C 184.42938,220.54343 185.99485,219.02817 187.90821,217.56878 C 201.91023,206.88892 213.56632,189.587 217.98283,172.92699 C 220.24785,164.38287 220.24785,148.58681 217.98283,140.04269 C 212.2585,118.44932 196.86452,99.427306 173.93658,85.615676 L 168.10528,82.102946 L 174.01733,79.480956 C 177.26896,78.038866 183.89237,75.471976 188.73603,73.776766 L 197.54268,70.694556 L 206.01516,72.359246 C 238.802,78.801306 263.5319,101.0062 273.58964,133.03417 C 275.62153,139.50453 275.92938,142.52423 275.92938,155.98484 C 275.92938,169.44545 275.62153,172.46515 273.58964,178.93551 C 267.05594,199.74149 254.4392,216.41676 236.92938,227.3886 C 228.52961,232.65199 227.2349,233.0212 221.42938,231.8088 z "
         style="fill:#fadc00;fill-opacity:1;stroke:none"
         id="path7463" />
      <path
         d="M 308.85422,233.58103 C 309.29367,232.85845 311.65382,229.56725 314.099,226.26725 C 328.72973,206.52167 336.90007,175.29924 334.25108,149.25735 C 330.69928,114.33994 313.90052,84.847517 287.99084,68.041417 C 284.27215,65.629327 279.65965,62.999827 277.74084,62.198097 C 275.82203,61.396367 274.25209,60.451187 274.25209,60.097697 C 274.25209,59.080787 302.67661,60.632857 314.25209,62.281827 C 340.57641,66.031827 348.2194,68.830327 359.88402,78.990087 C 376.25831,93.251927 386.57776,110.84279 390.79727,131.68585 C 393.08057,142.96458 392.37413,163.05855 389.32394,173.59362 C 386.51504,183.29528 382.30871,192.41056 376.86906,200.58386 C 371.61093,208.4844 359.40102,220.99773 353.75209,224.27528 C 349.51611,226.73302 333.43698,230.97547 321.75209,232.71843 C 317.90209,233.2927 313.24529,234.01732 311.40366,234.32869 C 308.80391,234.76823 308.23387,234.60106 308.85422,233.58103 z "
         style="fill:#fadc00;fill-opacity:1;stroke:none"
         id="path10435" />
      <path
         d="M 388,161 L 381.97196,121.98029 L 375.94392,82.96058 L 412.75,97.25 L 449.55608,111.53942 L 418.77804,136.26971 L 388,161 z "
         transform="matrix(1.0388214,-9.2724293e-2,0.123522,0.9113073,0.6813301,70.214136)"
         style="fill:#000000;fill-opacity:1;stroke:none;stroke-width:5;stroke-miterlimit:4;stroke-dasharray:none"
         id="path11418" />
    </g>
    <g
       transform="matrix(1.7571398,0,0,1.7567587,-37.219987,-36.826287)"
       id="g9117">
      <text
         x="168.39999"
         y="207.14999"
         style="font-size:52px;font-style:normal;font-weight:normal;fill:#fadc00;fill-opacity:1;stroke:none;stroke-width:1px;stroke-linecap:butt;stroke-linejoin:miter;stroke-opacity:1;font-family:Cooper"
         id="text2175"
         xml:space="preserve"><tspan
           x="168.39999"
           y="207.14999"
           style="font-size:50px;fill:#fadc00;fill-opacity:1"
           id="tspan2177">H</tspan></text>
      <text
         x="260.36374"
         y="146.17677"
         transform="matrix(0.97312,0.2303486,-0.2302486,0.97312,0,0)"
         style="font-size:56px;font-style:normal;font-weight:normal;fill:#000000;fill-opacity:1;stroke:none;stroke-width:1px;stroke-linecap:butt;stroke-linejoin:miter;stroke-opacity:1;font-family:RoostHeavy"
         id="text2179"
         xml:space="preserve"><tspan
           x="260.36374"
           y="146.17677"
           style="font-size:50px;fill:#000000;fill-opacity:1;font-family:Cooper"
           id="tspan2181">O</tspan></text>
      <text
         x="277.85001"
         y="207.28069"
         style="font-size:56px;font-style:normal;font-weight:normal;fill:#fadc00;fill-opacity:1;stroke:none;stroke-width:1px;stroke-linecap:butt;stroke-linejoin:miter;stroke-opacity:1;font-family:Cooper"
         id="text2183"
         xml:space="preserve"><tspan
           x="277.85001"
           y="207.28069"
           style="font-size:50px;fill:#fadc00;fill-opacity:1;font-family:Cooper"
           id="tspan2185">N</tspan></text>
      <text
         x="339.04999"
         y="206.70348"
         style="font-size:56px;font-style:normal;font-weight:normal;fill:#000000;fill-opacity:1;stroke:none;stroke-width:1px;stroke-linecap:butt;stroke-linejoin:miter;stroke-opacity:1;font-family:RoostHeavy"
         id="text2187"
         xml:space="preserve"><tspan
           x="339.04999"
           y="206.70348"
           style="font-size:50px;fill:#000000;fill-opacity:1;font-family:Cooper"
           id="tspan2189">E</tspan></text>
      <text
         x="395.45001"
         y="207.14848"
         style="font-size:56px;font-style:normal;font-weight:normal;fill:#fadc00;fill-opacity:1;stroke:none;stroke-width:1px;stroke-linecap:butt;stroke-linejoin:miter;stroke-opacity:1;font-family:RoostHeavy"
         id="text2191"
         xml:space="preserve"><tspan
           x="395.45001"
           y="207.14848"
           style="font-size:50px;fill:#fadc00;fill-opacity:1;font-family:Cooper"
           id="tspan2193">I</tspan></text>
    </g>
    <path
       d="M 6 163 A 104.5 54 0 1 1  -203,163 A 104.5 54 0 1 1  6 163 z"
       transform="matrix(1.5512314,-0.8251823,0.8253611,1.5508957,420.69134,-202.24618)"
       style="fill:#ebf5f5;fill-opacity:1;stroke:#000000;stroke-width:5;stroke-miterlimit:4;stroke-dasharray:none;stroke-opacity:1"
       id="path2311" />
    <g
       id="g9166">
      <path
         d="M 118.32685,287.08665 C 107.3029,249.74961 97.237545,225.87559 81.463155,199.64965 C 62.127998,167.50355 35.465913,141.44132 7.2394291,127.09596 C 2.5385691,124.70684 -0.41212493,122.6315 0.046857072,122.03717 C 2.5042721,118.85496 9.2259281,113.36867 10.667292,113.36867 C 13.791363,113.36867 30.379433,122.60307 40.465766,129.95716 C 79.910185,158.71652 111.77479,210.14981 128.88787,272.68083 C 132.97141,287.60208 132.94951,287.84709 127.47026,288.53598 C 120.25399,289.44325 118.96221,289.2386 118.32685,287.08665 z "
         style="fill:#020202;stroke:none"
         id="path14410" />
      <path
         d="M 152 159 A 63 65 0 1 1  26,159 A 63 65 0 1 1  152 159 z"
         transform="matrix(1.6734667,0,0,1.6216239,9.8316072e-2,53.173893)"
         style="fill:#fadc00;fill-opacity:1;stroke:#000000;stroke-width:5.33268213;stroke-miterlimit:4;stroke-dasharray:none;stroke-opacity:1"
         id="path12396" />
      <path
         d="M 149.58854,253.56735 C 138.56458,216.23043 128.49925,192.3564 112.72486,166.13035 C 93.389685,133.98436 66.727605,107.92213 38.501123,93.576659 C 33.800263,91.187654 30.84957,89.112317 31.308551,88.517867 C 33.765964,85.335779 40.487621,79.849368 41.928985,79.849368 C 45.053057,79.849368 61.641126,89.083769 71.727461,96.437851 C 111.17188,125.19734 143.03649,176.63062 160.14956,239.16153 C 164.23312,254.0829 164.21121,254.32779 158.73195,255.0168 C 151.51568,255.92407 150.22391,255.7193 149.58854,253.56735 z "
         style="fill:#020202;stroke:none"
         id="path14391" />
      <path
         d="M 98.994946 149.0327 A 9.5459414 16.61701 0 1 1  79.903064,149.0327 A 9.5459414 16.61701 0 1 1  98.994946 149.0327 z"
         transform="matrix(1.6566474,0,0,1.4272272,-72.948495,85.13281)"
         style="fill:#000000;fill-opacity:1;stroke:none;stroke-width:0;stroke-miterlimit:4;stroke-dasharray:none;stroke-opacity:1"
         id="path14412" />
      <path
         d="M 98.994946 149.0327 A 9.5459414 16.61701 0 1 1  79.903064,149.0327 A 9.5459414 16.61701 0 1 1  98.994946 149.0327 z"
         transform="matrix(1.8407194,0,0,1.5858075,-38.456489,57.107143)"
         style="fill:#000000;fill-opacity:1;stroke:none;stroke-width:0;stroke-miterlimit:4;stroke-dasharray:none;stroke-opacity:1"
         id="path22184" />
      <path
         d="M 61.316672,369.21358 L 62.147932,363.02094 L 74.425932,363.31521 C 103.06772,364.00157 128.91576,360.16047 152.87333,351.65772 C 167.55291,346.44787 171.77498,344.49154 184.8496,336.84186 C 190.60375,333.47524 195.74661,331.08696 196.27817,331.53469 C 196.80971,331.98231 197.54243,334.32132 197.90646,336.73237 C 198.53552,340.89894 198.39799,341.2567 195.13194,343.95033 C 190.31112,347.92635 173.91826,357.1039 164.37587,361.16929 C 141.47248,370.92671 110.17471,376.33519 77.854891,376.12042 C 59.076332,375.99562 60.335689,376.52153 61.316672,369.21358 z "
         style="fill:#030303"
         id="path2241" />
    </g>
  </g>
</svg>
